<svg version="1.1" xmlns="http://www.w3.org/2000/svg" viewBox="-3540.3161361765287 -1510.400035095215 9512.284095771256 2476.032064819336"><desc>Created with Snap</desc><defs></defs><g><rect x="-3540.3161361765287" y="-1510.400035095215" width="9512.284095771256" height="2476.032064819336" fill="#6b2d5c" style=""></rect><g transform="matrix(34.4747,0,0,34.4747,-3474.4394,-1996.1192)"><g transform="translate(0,-952.36218)"><path style="text-indent: 0px; text-transform: none; direction: ltr; baseline-shift: baseline; color: rgb(0, 0, 0);" d="m 50,975.36218 c -9.843718,0 -18.769259,1.12679 -25.34375,3.01395 -6.574492,1.88717 -10.96875,4.60135 -10.96875,7.78605 0,0.28803 0.05467,0.56761 0.125,0.84767 L 7.03125,1018.0912 A 1.0001,1.0047516 0 0 0 7,1018.311 c 0,1.9573 1.551479,3.4934 3.8125,4.7721 2.261021,1.2787 5.394001,2.3743 9.25,3.2965 7.711998,1.8448 18.275182,2.9826 29.9375,2.9826 11.662318,0 22.225502,-1.1378 29.9375,-2.9826 3.855999,-0.9222 6.988979,-2.0178 9.25,-3.2965 2.261021,-1.2787 3.8125,-2.8148 3.8125,-4.7721 a 1.0001,1.0047516 0 0 0 -0.03125,-0.2198 L 86.1875,987.00985 c 0.07033,-0.28006 0.125,-0.55964 0.125,-0.84767 0,-3.1847 -4.394258,-5.89888 -10.96875,-7.78605 C 68.769259,976.48897 59.843718,975.36218 50,975.36218 z m 0,1.50698 c 9.48625,0 18.094483,1.10801 24.1875,2.85697 6.093017,1.74896 9.5,4.07222 9.5,6.43605 0,1.82669 -2.07188,3.61975 -5.8125,5.14884 -0.312008,-1.18754 -1.223447,-2.22232 -2.4375,-3.07675 -1.506489,-1.06024 -3.553061,-1.953 -6.0625,-2.7 -5.018878,-1.49398 -11.839091,-2.38604 -19.375,-2.38604 -7.53591,0 -14.356123,0.89206 -19.375,2.38604 -2.509439,0.747 -4.556011,1.63976 -6.0625,2.7 -1.214053,0.85443 -2.125492,1.88921 -2.4375,3.07675 -3.74062,-1.52909 -5.8125,-3.32215 -5.8125,-5.14884 0,-2.36383 3.438233,-4.68709 9.53125,-6.43605 6.093017,-1.74896 14.67,-2.85697 24.15625,-2.85697 z m 0,8.28837 c 7.375779,0 14.0593,0.87696 18.8125,2.29186 2.3766,0.70745 4.27394,1.55457 5.5,2.41744 1.130057,0.79531 1.587932,1.54361 1.65625,2.16628 -0.570941,0.19188 -1.152635,0.38468 -1.78125,0.56512 -6.093017,1.74895 -14.70125,2.85697 -24.1875,2.85697 -9.48625,0 -18.063233,-1.10802 -24.15625,-2.85697 -0.630351,-0.18094 -1.240144,-0.37268 -1.8125,-0.56512 0.06832,-0.62267 0.526193,-1.37097 1.65625,-2.16628 1.22606,-0.86287 3.1234,-1.70999 5.5,-2.41744 4.7532,-1.4149 11.436721,-2.29186 18.8125,-2.29186 z m -34.6875,4.23837 c 1.843277,1.79078 5.138009,3.34509 9.34375,4.55233 6.574491,1.88716 15.500032,3.01395 25.34375,3.01395 9.843718,0 18.769259,-1.12679 25.34375,-3.01395 4.205741,-1.20724 7.500473,-2.76155 9.34375,-4.55233 L 91,1018.311 c 0,0.817 -0.79164,1.8888 -2.78125,3.014 -1.98961,1.1252 -5.005494,2.2124 -8.75,3.1081 -7.489012,1.7914 -17.935109,2.9198 -29.46875,2.9198 -11.533641,0 -21.979738,-1.1284 -29.46875,-2.9198 -3.744506,-0.8957 -6.76039,-1.9829 -8.75,-3.1081 C 9.7916397,1020.1998 9,1019.128 9,1018.311 l 6.3125,-28.9151 z M 32,1002.2366 c -3.30187,0 -6,2.7107 -6,6.0279 0,1.1176 0.371573,2.1125 0.90625,3.014 -0.52592,0.8961 -0.90625,1.9061 -0.90625,3.0139 0,3.3172 2.69813,6.0279 6,6.0279 2.584095,0 4.720106,-1.7031 5.5625,-4.0186 l 24.875,0 c 0.842394,2.3155 2.978405,4.0186 5.5625,4.0186 3.30187,0 6,-2.7107 6,-6.0279 0,-1.1078 -0.38033,-2.1178 -0.90625,-3.0139 0.534677,-0.9015 0.90625,-1.8964 0.90625,-3.014 0,-3.3172 -2.69813,-6.0279 -6,-6.0279 -2.594356,0 -4.727754,1.6886 -5.5625,4.0186 l -24.875,0 c -0.834746,-2.33 -2.968144,-4.0186 -5.5625,-4.0186 z m 0,2.0093 c 1.941239,0 3.565377,1.3754 3.9375,3.2023 a 1.0001,1.0047516 0 0 0 0.96875,0.8163 l 26.1875,0 a 1.0001,1.0047516 0 0 0 0.96875,-0.8163 c 0.372123,-1.8269 1.996261,-3.2023 3.9375,-3.2023 2.220978,0 4,1.7873 4,4.0186 0,0.9305 -0.268853,1.7099 -0.78125,2.3861 a 1.0001,1.0047516 0 0 0 0,1.2244 c 0.512397,0.676 0.78125,1.4869 0.78125,2.4174 0,2.2313 -1.779022,4.0186 -4,4.0186 -1.941239,0 -3.565377,-1.4066 -3.9375,-3.2337 a 1.0001,1.0047516 0 0 0 -0.96875,-0.7849 l -26.1875,0 a 1.0001,1.0047516 0 0 0 -0.96875,0.7849 c -0.372123,1.8271 -1.996261,3.2337 -3.9375,3.2337 -2.220978,0 -4,-1.7873 -4,-4.0186 0,-0.9305 0.268853,-1.7414 0.78125,-2.4174 a 1.0001,1.0047516 0 0 0 0,-1.2244 C 28.268853,1009.9744 28,1009.195 28,1008.2645 c 0,-2.2313 1.779022,-4.0186 4,-4.0186 z" fill="#ffffff" fill-opacity="1" stroke="none" marker="none" visibility="visible" display="inline" overflow="visible"></path></g><desc>Created with Snap</desc><defs></defs></g><g><g transform="matrix(1.024,0,0,-1.024,0,0)"><path d="M232 102L232 255Q232 273 226 278Q221 284 203 284L129 284Q38 284 38 373L38 538Q38 626 131 626L229 626Q322 626 322 538L322 446L231 446L231 524Q231 542 225 547Q219 553 201 553L159 553Q141 553 135 547Q129 542 129 524L129 385Q129 367 135 361Q141 356 159 356L232 356Q324 356 324 268L324 88Q324 0 230 0L133 0Q40 0 40 88L40 180L131 180L131 102Q131 84 137 78Q143 73 161 73L203 73Q221 73 226 78Q232 84 232 102ZM592 108L592 488L682 488L682 0L592 0L592 39Q579 0 530 0L494 0Q404 0 404 88L404 488L494 488L494 102Q494 84 500 78Q506 73 524 73L559 73Q577 73 584 81Q592 89 592 108ZM922 488L957 488Q1048 488 1048 399L1048 88Q1048 0 957 0L922 0Q873 0 860 39L860 -138L770 -138L770 488L860 488L860 449Q873 488 922 488ZM958 102L958 386Q958 404 952 409Q946 415 928 415L893 415Q875 415 867 407Q860 399 860 380L860 108Q860 89 867 81Q875 73 893 73L928 73Q946 73 952 78Q958 84 958 102ZM1221 488L1319 488Q1413 488 1413 399L1413 216L1216 216L1216 100Q1216 83 1222 77Q1228 71 1246 71L1292 71Q1310 71 1316 77Q1322 83 1322 101L1322 141L1410 141L1410 88Q1410 0 1317 0L1221 0Q1128 0 1128 88L1128 399Q1128 488 1221 488ZM1216 388L1216 282L1324 282L1324 388Q1324 405 1318 411Q1313 417 1295 417L1246 417Q1228 417 1222 411Q1216 405 1216 388ZM1659 489L1679 489L1679 411L1643 411Q1580 411 1580 337L1580 0L1490 0L1490 488L1580 488L1580 428Q1588 454 1608 471Q1629 489 1659 489ZM1880 488L1915 488Q2006 488 2006 399L2006 88Q2006 0 1915 0L1880 0Q1831 0 1818 39L1818 -138L1728 -138L1728 488L1818 488L1818 449Q1831 488 1880 488ZM1916 102L1916 386Q1916 404 1910 409Q1904 415 1886 415L1851 415Q1833 415 1825 407Q1818 399 1818 380L1818 108Q1818 89 1825 81Q1833 73 1851 73L1886 73Q1904 73 1910 78Q1916 84 1916 102ZM2179 488L2277 488Q2371 488 2371 399L2371 216L2174 216L2174 100Q2174 83 2180 77Q2186 71 2204 71L2250 71Q2268 71 2274 77Q2280 83 2280 101L2280 141L2368 141L2368 88Q2368 0 2275 0L2179 0Q2086 0 2086 88L2086 399Q2086 488 2179 488ZM2174 388L2174 282L2282 282L2282 388Q2282 405 2276 411Q2271 417 2253 417L2204 417Q2186 417 2180 411Q2174 405 2174 388ZM2613 488L2613 415L2546 415L2546 106Q2546 88 2551 82Q2557 77 2575 77L2613 77L2613 0L2549 0Q2455 0 2455 88L2455 415L2409 415L2409 488L2455 488L2455 571L2546 571L2546 488L2613 488ZM2975 98L2975 179Q2975 197 2969 202Q2963 208 2945 208L2894 208Q2801 208 2801 296L2801 399Q2801 488 2894 488L2967 488Q3061 488 3061 399L3061 352L2973 352L2973 390Q2973 408 2967 413Q2961 419 2943 419L2919 419Q2901 419 2895 413Q2889 408 2889 390L2889 306Q2889 288 2895 282Q2901 277 2919 277L2971 277Q3063 277 3063 188L3063 88Q3063 0 2970 0L2896 0Q2803 0 2803 88L2803 136L2891 136L2891 98Q2891 80 2897 74Q2903 69 2921 69L2945 69Q2963 69 2969 74Q2975 80 2975 98ZM3232 581L3138 581L3138 670L3232 670L3232 581ZM3230 488L3230 0L3140 0L3140 488L3230 488ZM3500 450L3500 669L3590 669L3590 0L3500 0L3500 39Q3487 0 3438 0L3402 0Q3312 0 3312 88L3312 400Q3312 489 3402 489L3438 489Q3487 489 3500 450ZM3432 73L3467 73Q3485 73 3492 81Q3500 89 3500 108L3500 381Q3500 400 3492 408Q3485 416 3467 416L3432 416Q3414 416 3408 410Q3402 404 3402 387L3402 102Q3402 84 3408 78Q3414 73 3432 73ZM3769 488L3867 488Q3961 488 3961 399L3961 216L3764 216L3764 100Q3764 83 3770 77Q3776 71 3794 71L3840 71Q3858 71 3864 77Q3870 83 3870 101L3870 141L3958 141L3958 88Q3958 0 3865 0L3769 0Q3676 0 3676 88L3676 399Q3676 488 3769 488ZM3764 388L3764 282L3872 282L3872 388Q3872 405 3866 411Q3861 417 3843 417L3794 417Q3776 417 3770 411Q3764 405 3764 388ZM4252 488L4348 488L4236 255L4348 0L4252 0L4144 255L4252 488ZM4128 0L4038 0L4038 669L4128 669L4128 0ZM4487 581L4393 581L4393 670L4487 670L4487 581ZM4485 488L4485 0L4395 0L4395 488L4485 488ZM4849 399L4849 334L4760 334L4760 386Q4760 404 4754 409Q4748 415 4730 415L4687 415Q4669 415 4663 409Q4657 404 4657 386L4657 102Q4657 84 4663 78Q4669 73 4687 73L4730 73Q4748 73 4754 78Q4760 84 4760 102L4760 154L4849 154L4849 88Q4849 0 4755 0L4660 0Q4567 0 4567 88L4567 399Q4567 488 4660 488L4755 488Q4849 488 4849 399ZM5138 488L5234 488L5122 255L5234 0L5138 0L5030 255L5138 488ZM5014 0L4924 0L4924 669L5014 669L5014 0ZM5444 98L5444 179Q5444 197 5438 202Q5432 208 5414 208L5363 208Q5270 208 5270 296L5270 399Q5270 488 5363 488L5436 488Q5530 488 5530 399L5530 352L5442 352L5442 390Q5442 408 5436 413Q5430 419 5412 419L5388 419Q5370 419 5364 413Q5358 408 5358 390L5358 306Q5358 288 5364 282Q5370 277 5388 277L5440 277Q5532 277 5532 188L5532 88Q5532 0 5439 0L5365 0Q5272 0 5272 88L5272 136L5360 136L5360 98Q5360 80 5366 74Q5372 69 5390 69L5414 69Q5432 69 5438 74Q5444 80 5444 98Z" fill="#ffffff" style=""></path></g></g></g></svg>